<?xml version="1.0" encoding="UTF-8" standalone="no"?>
<!DOCTYPE svg PUBLIC "-//W3C//DTD SVG 1.1//EN" 
  "http://www.w3.org/Graphics/SVG/1.1/DTD/svg11.dtd">
<svg xmlns:dc="http://purl.org/dc/elements/1.1/" xmlns:cc="http://creativecommons.org/ns#" xmlns:rdf="http://www.w3.org/1999/02/22-rdf-syntax-ns#" xmlns:svg="http://www.w3.org/2000/svg" xmlns="http://www.w3.org/2000/svg" version="1.0" width="440" height="126" id="svg2">
 <path d="M 432,33.4 430,33.4 430,28.4 428,31.7 427,31.7 426,28.4 426,33.4 424,33.4 424,24.9 426,24.9 428,29.5 430,24.9 432,24.9 z M 423,26.4 421,26.4 421,33.4 419,33.4 419,26.4 417,26.4 417,24.9 423,24.9 z M 412,57.9 406,57.9 406,38.7 399,51.2 395,51.2 389,38.7 389,57.9 382,57.9 382,24.9 389,24.9 397,42.7 406,24.9 412,24.9 z M 373,57.9 366,57.9 364,52.1 353,52.1 351,57.9 344,57.9 356,24.9 361,24.9 z M 363,46.6 359,34.6 355,46.6 z M 334,57.9 312,57.9 312,24.9 334,24.9 334,30.6 319,30.6 319,38.4 332,38.4 332,44.1 319,44.1 319,52.2 334,52.2 z M 302,30.6 294,30.6 294,57.9 287,57.9 287,30.6 278,30.6 278,24.9 302,24.9 z M 270,48.2 C 270,55 264,58.1 258,58.2 252,58.2 248,56.8 246,53.8 L 250,49.7 C 252,51.5 254,52.5 258,52.5 262,52.5 264,51.1 264,48.4 264,45.9 262,44.8 260,44.4 L 256,43.9 C 250,43.1 247,40 247,34.6 247,31.6 248,29.2 250,27.3 252,25.5 255,24.6 258,24.6 263,24.6 266,25.9 269,28.4 L 265,32.5 C 263,31 261,30.2 258,30.2 255,30.4 253,31.5 253,34.4 253,36.7 255,37.8 257,38 L 261,38.6 C 266,39.2 270,42.6 270,48.2 z M 219,42.2 C 219,51.2 211,58.5 202,58.5 193,58.5 186,51.2 186,42.2 186,33.3 193,26 202,26 211,26 219,33.3 219,42.2 z M 202,12 C 186,12 172,25.4 172,42.1 L 153,69.2 C 152,69.1 152,69 151,69 147,69 143,70.2 139,72.2 L 53.6,37.8 C 51.3,27.6 42.2,20 31.4,20 19,20 8.78,30.2 8.78,42.7 8.78,55.1 19,65.3 31.4,65.3 35.7,65.3 39.6,64.2 43,62.1 L 129,96.5 C 131,107 140,114 151,114 162,114 172,105 173,93.9 L 202,72.7 C 219,72.7 233,59.1 233,42.3 233,25.6 219,12 202,12 z M 202,22 C 214,22 223,31.1 223,42.3 223,53.6 214,62.7 202,62.7 191,62.7 182,53.6 182,42.3 182,31.1 191,22 202,22 z M 31.4,26 C 37.8,26 43.4,29.5 46.2,34.8 L 37.9,31.5 37.9,31.5 C 31.2,29.1 23.8,32.4 21.1,39 18.5,45.7 21.5,53.2 28,56.1 L 28,56.1 35,58.9 C 33.9,59.2 32.7,59.3 31.4,59.3 22.2,59.3 14.8,51.9 14.8,42.7 14.8,33.4 22.2,26 31.4,26 z M 151,75 C 160,75 167,82.5 167,91.7 167,101 160,108 151,108 144,108 139,105 136,99.5 139,101 141,102 144,103 151,106 158,102 161,95.6 163,89.4 161,80.9 154,78.2 L 147,75.4 C 148,75.2 150,75 151,75 z" fill="#000" />
</svg>
